# xmcd CD database file
#
# Track frame offsets:
#	150
#	23720
#	46982
#	69685
#	92910
#	124207
#	152165
#	184065
#	205730
#	232740
#	267530
#
# Disc length: 3838 seconds
#
# Revision: 0
# Processed by: cddbd v1.5.1PL2 Copyright (c) Steve Scherf et al.
# Submitted via: CDex 1.51
#
DISCID=950efc0b
DTITLE=Clark Terry - Warner Jazz Incontournables
DYEAR=1996
DGENRE=Jazz
TTITLE0=Stardust
TTITLE1=The simple waltz
TTITLE2=If i were you
TTITLE3=It's fun to think
TTITLE4=Mood Indigo
TTITLE5=Argentia
TTITLE6=Swingin the blues
TTITLE7=Top'n bottom
TTITLE8=Boomerang
TTITLE9=Bemsha swing
TTITLE10=Passion flower
EXTD=YEAR: 1996
EXTT0=
EXTT1=
EXTT2=
EXTT3=
EXTT4=
EXTT5=
EXTT6=
EXTT7=
EXTT8=
EXTT9=
EXTT10=
PLAYORDER=
